# xmcd
#
# Track frame offsets: 
#        150
#        15445
#        40318
#        59677
#        81578
#        94027
#        105440
#        122121
#        131927
#        152299
#        171900
#        189057
#        201411
#        218664
#
# Disc length: 3064 seconds
#
# Revision: 1
# Processed by: cddbd v1.5.2PL0 Copyright (c) Steve Scherf et al.
# Submitted via: ExactAudioCopy v1.0b3
#
DISCID=bc0bf60e
DTITLE=Mikey Jr - Mikey Likes It
DYEAR=2007
DGENRE=Blues
TTITLE0=Everythings Gonna Be Allright
TTITLE1=Treat Me Right
TTITLE2=I'm Ready
TTITLE3=The Prowler
TTITLE4=She's My Baby
TTITLE5=She's My Baby
TTITLE6=Tight Dress Woman
TTITLE7=Car Trouble
TTITLE8=Mighty Long Time
TTITLE9=Back Door Man
TTITLE10=I'm Drunk Again
TTITLE11=What You Say
TTITLE12=Every Morning
TTITLE13=Silent Night
EXTD=
EXTT0=
EXTT1=
EXTT2=
EXTT3=
EXTT4=
EXTT5=
EXTT6=
EXTT7=
EXTT8=
EXTT9=
EXTT10=
EXTT11=
EXTT12=
EXTT13=
PLAYORDER=
